<svg xmlns="http://www.w3.org/2000/svg" xmlns:xlink="http://www.w3.org/1999/xlink" width="4000" zoomAndPan="magnify" viewBox="0 0 3000 2999.999989" height="4000" preserveAspectRatio="xMidYMid meet" version="1.0"><defs><clipPath id="626c6700c4"><path d="M 207 240 L 2903.558594 240 L 2903.558594 2359 L 207 2359 Z M 207 240 " clip-rule="nonzero"/></clipPath><clipPath id="0430259cba"><path d="M 2279 1748 L 2903.558594 1748 L 2903.558594 2373.046875 L 2279 2373.046875 Z M 2279 1748 " clip-rule="nonzero"/></clipPath><clipPath id="f27c3238ea"><path d="M 522 153.046875 L 781 153.046875 L 781 412 L 522 412 Z M 522 153.046875 " clip-rule="nonzero"/></clipPath><clipPath id="fa349dfcc5"><path d="M 115.808594 326 L 321 326 L 321 533 L 115.808594 533 Z M 115.808594 326 " clip-rule="nonzero"/></clipPath></defs><g clip-path="url(#626c6700c4)"><path fill="#2478bc" d="M 1881.367188 1804.1875 L 1700.910156 1804.1875 C 1691.570312 1804.1875 1682.230469 1805.082031 1673.035156 1806.675781 L 1646.75 1811.417969 L 1334.414062 1499.0625 L 1339.15625 1472.777344 C 1340.796875 1463.578125 1341.640625 1454.238281 1341.640625 1444.898438 L 1341.640625 1207.640625 C 1341.640625 1120.34375 1270.257812 1048.953125 1182.964844 1048.953125 L 945.71875 1048.953125 C 858.425781 1048.953125 786.992188 1120.34375 786.992188 1207.640625 L 786.992188 1444.898438 C 786.992188 1453.347656 787.695312 1461.703125 788.964844 1469.960938 L 793.703125 1500.421875 L 544.304688 1685.957031 L 523.558594 1683.046875 C 519.992188 1682.578125 516.378906 1682.34375 512.71875 1682.34375 L 289.554688 1682.34375 C 244.359375 1682.34375 207.1875 1719.515625 207.1875 1764.714844 L 207.1875 1987.894531 C 207.1875 2033.09375 244.359375 2070.21875 289.554688 2070.21875 L 512.71875 2070.21875 C 557.914062 2070.21875 595.085938 2033.09375 595.085938 1987.894531 L 595.085938 1754.203125 L 843.03125 1569.886719 L 871.519531 1585.09375 C 894.421875 1597.296875 919.765625 1603.585938 945.71875 1603.585938 L 1182.964844 1603.585938 C 1192.304688 1603.585938 1201.640625 1602.742188 1210.839844 1601.101562 L 1237.125 1596.359375 L 1549.460938 1908.714844 L 1544.71875 1934.996094 C 1543.078125 1944.195312 1542.230469 1953.535156 1542.230469 1962.875 L 1542.230469 2200.226562 C 1542.230469 2287.527344 1613.617188 2358.917969 1700.910156 2358.917969 L 1938.203125 2358.917969 C 2025.496094 2358.917969 2096.882812 2287.527344 2096.882812 2200.226562 L 2096.882812 1962.875 C 2096.882812 1920.917969 2080.078125 1880.785156 2050.558594 1851.078125 L 2024.652344 1825.074219 L 2485.90625 902.46875 L 2746.617188 902.46875 C 2832.691406 902.46875 2903.464844 831.785156 2903.464844 745.65625 L 2903.464844 397.773438 C 2903.464844 311.601562 2832.785156 240.914062 2746.617188 240.914062 L 2398.753906 240.914062 C 2312.632812 240.914062 2241.949219 311.601562 2241.949219 397.773438 L 2241.949219 745.65625 C 2241.949219 794.28125 2264.617188 839.621094 2302.867188 869.378906 L 2335.816406 895.097656 L 1881.273438 1804.1875 Z M 1881.367188 1804.1875 " fill-opacity="1" fill-rule="evenodd"/></g><path fill="#a9abae" d="M 1855.132812 381.441406 C 1807.964844 381.441406 1769.386719 420.066406 1769.386719 467.191406 L 1769.386719 610.71875 C 1769.386719 657.886719 1807.964844 696.46875 1855.132812 696.46875 L 1998.652344 696.46875 C 2045.820312 696.46875 2084.398438 657.839844 2084.398438 610.71875 L 2084.398438 467.191406 C 2084.398438 420.019531 2045.773438 381.441406 1998.652344 381.441406 Z M 1855.132812 381.441406 " fill-opacity="1" fill-rule="evenodd"/><path fill="#0fc0ea" d="M 1195.871094 240.914062 C 1109.464844 240.914062 1038.785156 311.648438 1038.785156 398.054688 L 1038.785156 660.890625 C 1038.785156 747.300781 1109.464844 817.984375 1195.871094 817.984375 L 1458.691406 817.984375 C 1545.09375 817.984375 1615.777344 747.253906 1615.777344 660.890625 L 1615.777344 398.054688 C 1615.777344 311.648438 1545.09375 240.914062 1458.691406 240.914062 Z M 1195.871094 240.914062 " fill-opacity="1" fill-rule="evenodd"/><path fill="#0fc0ea" d="M 921.546875 1934.105469 C 857.953125 1934.105469 805.90625 1986.15625 805.90625 2049.753906 L 805.90625 2243.269531 C 805.90625 2306.867188 857.953125 2358.917969 921.546875 2358.917969 L 1115.050781 2358.917969 C 1178.644531 2358.917969 1230.695312 2306.867188 1230.695312 2243.269531 L 1230.695312 2049.753906 C 1230.695312 1986.15625 1178.644531 1934.105469 1115.050781 1934.105469 Z M 921.546875 1934.105469 " fill-opacity="1" fill-rule="evenodd"/><g clip-path="url(#0430259cba)"><path fill="#a9abae" d="M 2449.0625 1748.523438 C 2355.574219 1748.523438 2279.027344 1825.027344 2279.027344 1918.570312 L 2279.027344 2203.042969 C 2279.027344 2296.539062 2355.527344 2373.089844 2449.0625 2373.089844 L 2733.523438 2373.089844 C 2827.011719 2373.089844 2903.558594 2296.585938 2903.558594 2203.042969 L 2903.558594 1918.570312 C 2903.558594 1825.074219 2827.058594 1748.523438 2733.523438 1748.523438 Z M 2449.0625 1748.523438 " fill-opacity="1" fill-rule="evenodd"/></g><path fill="#0fc0ea" d="M 2578.972656 1151.929688 C 2527.535156 1151.929688 2485.390625 1194.03125 2485.390625 1245.472656 L 2485.390625 1402 C 2485.390625 1453.441406 2527.488281 1495.542969 2578.972656 1495.542969 L 2735.492188 1495.542969 C 2786.933594 1495.542969 2829.03125 1453.441406 2829.03125 1402 L 2829.03125 1245.472656 C 2829.03125 1194.03125 2786.933594 1151.929688 2735.492188 1151.929688 Z M 2578.972656 1151.929688 " fill-opacity="1" fill-rule="evenodd"/><path fill="#2478bc" d="M 1659.890625 893.550781 C 1592.636719 893.550781 1537.585938 948.605469 1537.585938 1015.863281 L 1537.585938 1220.5 C 1537.585938 1287.761719 1592.636719 1342.816406 1659.890625 1342.816406 L 1864.519531 1342.816406 C 1931.773438 1342.816406 1986.824219 1287.761719 1986.824219 1220.5 L 1986.824219 1015.863281 C 1986.824219 948.605469 1931.773438 893.550781 1864.519531 893.550781 Z M 1659.890625 893.550781 " fill-opacity="1" fill-rule="evenodd"/><path fill="#0fc0ea" d="M 309.828125 888.058594 C 253.414062 888.058594 207.234375 934.242188 207.234375 990.660156 L 207.234375 1162.347656 C 207.234375 1218.765625 253.414062 1264.949219 309.828125 1264.949219 L 481.507812 1264.949219 C 537.921875 1264.949219 584.101562 1218.765625 584.101562 1162.347656 L 584.101562 990.660156 C 584.101562 934.242188 537.921875 888.058594 481.507812 888.058594 Z M 309.828125 888.058594 " fill-opacity="1" fill-rule="evenodd"/><path fill="#2478bc" d="M 702.515625 591.335938 C 656.566406 591.335938 618.925781 628.976562 618.925781 674.925781 L 618.925781 814.792969 C 618.925781 860.742188 656.519531 898.386719 702.515625 898.386719 L 842.375 898.386719 C 888.320312 898.386719 925.960938 860.742188 925.960938 814.792969 L 925.960938 674.925781 C 925.960938 628.976562 888.367188 591.335938 842.375 591.335938 Z M 702.515625 591.335938 " fill-opacity="1" fill-rule="evenodd"/><g clip-path="url(#f27c3238ea)"><path fill="#00afef" d="M 592.597656 153.054688 C 553.925781 153.054688 522.292969 184.6875 522.292969 223.363281 L 522.292969 341.074219 C 522.292969 379.75 553.925781 411.382812 592.597656 411.382812 L 710.257812 411.382812 C 748.929688 411.382812 780.5625 379.75 780.5625 341.074219 L 780.5625 223.363281 C 780.5625 184.6875 748.929688 153.054688 710.257812 153.054688 Z M 592.597656 153.054688 " fill-opacity="1" fill-rule="evenodd"/></g><g clip-path="url(#fa349dfcc5)"><path fill="#a9abae" d="M 171.660156 326.855469 C 140.964844 326.855469 115.808594 351.964844 115.808594 382.707031 L 115.808594 476.15625 C 115.808594 506.851562 140.917969 532.007812 171.660156 532.007812 L 265.101562 532.007812 C 295.796875 532.007812 320.953125 506.851562 320.953125 476.15625 L 320.953125 382.707031 C 320.953125 351.964844 295.84375 326.855469 265.101562 326.855469 Z M 171.660156 326.855469 " fill-opacity="1" fill-rule="evenodd"/></g></svg>