<svg xmlns="http://www.w3.org/2000/svg" xmlns:xlink="http://www.w3.org/1999/xlink" width="4000" zoomAndPan="magnify" viewBox="0 0 3000 2999.999989" height="4000" preserveAspectRatio="xMidYMid meet" version="1.0"><defs><g/><clipPath id="fc7791acac"><path d="M 693.132812 162 L 2221.632812 162 L 2221.632812 1621 L 693.132812 1621 Z M 693.132812 162 " clip-rule="nonzero"/></clipPath><clipPath id="7278fb2eca"><path d="M 1986 1200 L 2221.632812 1200 L 2221.632812 1630.136719 L 1986 1630.136719 Z M 1986 1200 " clip-rule="nonzero"/></clipPath><clipPath id="e8a0c9b324"><path d="M 2128 789 L 2221.632812 789 L 2221.632812 1026 L 2128 1026 Z M 2128 789 " clip-rule="nonzero"/></clipPath><clipPath id="33942e4362"><path d="M 693.132812 607 L 821 607 L 821 868 L 693.132812 868 Z M 693.132812 607 " clip-rule="nonzero"/></clipPath><clipPath id="d44f9901b3"><path d="M 777 101.636719 L 956 101.636719 L 956 280 L 777 280 Z M 777 101.636719 " clip-rule="nonzero"/></clipPath></defs><rect x="-300" width="3600" fill="#ffffff" y="-299.999999" height="3599.999987" fill-opacity="1"/><rect x="-300" width="3600" fill="#ffffff" y="-299.999999" height="3599.999987" fill-opacity="1"/><rect x="-300" width="3600" fill="#000000" y="-299.999999" height="3599.999987" fill-opacity="1"/><g clip-path="url(#fc7791acac)"><path fill="#2478bc" d="M 1713.132812 1238.472656 L 1588.894531 1238.472656 C 1582.464844 1238.472656 1576.035156 1239.085938 1569.703125 1240.183594 L 1551.609375 1243.449219 L 1336.578125 1028.386719 L 1339.839844 1010.289062 C 1340.972656 1003.957031 1341.554688 997.523438 1341.554688 991.09375 L 1341.554688 827.738281 C 1341.554688 767.632812 1292.410156 718.480469 1232.308594 718.480469 L 1068.976562 718.480469 C 1008.878906 718.480469 959.699219 767.632812 959.699219 827.738281 L 959.699219 991.09375 C 959.699219 996.910156 960.1875 1002.664062 961.058594 1008.351562 L 964.320312 1029.324219 L 792.621094 1157.066406 L 778.339844 1155.0625 C 775.882812 1154.742188 773.394531 1154.578125 770.875 1154.578125 L 617.234375 1154.578125 C 586.121094 1154.578125 560.527344 1180.171875 560.527344 1211.292969 L 560.527344 1364.953125 C 560.527344 1396.074219 586.121094 1421.636719 617.234375 1421.636719 L 770.875 1421.636719 C 801.992188 1421.636719 827.582031 1396.074219 827.582031 1364.953125 L 827.582031 1204.054688 L 998.28125 1077.152344 L 1017.894531 1087.621094 C 1033.660156 1096.023438 1051.109375 1100.355469 1068.976562 1100.355469 L 1232.308594 1100.355469 C 1238.738281 1100.355469 1245.171875 1099.773438 1251.503906 1098.640625 L 1269.597656 1095.375 L 1484.628906 1310.4375 L 1481.363281 1328.535156 C 1480.234375 1334.867188 1479.652344 1341.300781 1479.652344 1347.730469 L 1479.652344 1511.152344 C 1479.652344 1571.257812 1528.796875 1620.410156 1588.894531 1620.410156 L 1752.261719 1620.410156 C 1812.359375 1620.410156 1861.503906 1571.257812 1861.503906 1511.152344 L 1861.503906 1347.730469 C 1861.503906 1318.839844 1849.9375 1291.210938 1829.613281 1270.753906 L 1811.777344 1252.851562 L 2129.332031 617.621094 L 2308.820312 617.621094 C 2368.078125 617.621094 2416.804688 568.953125 2416.804688 509.65625 L 2416.804688 270.132812 C 2416.804688 210.800781 2368.144531 162.132812 2308.820312 162.132812 L 2069.332031 162.132812 C 2010.039062 162.132812 1961.378906 210.800781 1961.378906 270.132812 L 1961.378906 509.65625 C 1961.378906 543.132812 1976.984375 574.351562 2003.320312 594.839844 L 2026 612.546875 L 1713.066406 1238.472656 Z M 1713.132812 1238.472656 " fill-opacity="1" fill-rule="evenodd"/></g><path fill="#0fc0ea" d="M 1695.070312 258.886719 C 1662.597656 258.886719 1636.039062 285.480469 1636.039062 317.925781 L 1636.039062 416.746094 C 1636.039062 449.226562 1662.597656 475.789062 1695.070312 475.789062 L 1793.878906 475.789062 C 1826.351562 475.789062 1852.910156 449.191406 1852.910156 416.746094 L 1852.910156 317.925781 C 1852.910156 285.449219 1826.316406 258.886719 1793.878906 258.886719 Z M 1695.070312 258.886719 " fill-opacity="1" fill-rule="evenodd"/><path fill="#164b75" d="M 1241.195312 162.132812 C 1181.710938 162.132812 1133.050781 210.832031 1133.050781 270.324219 L 1133.050781 451.292969 C 1133.050781 510.785156 1181.710938 559.453125 1241.195312 559.453125 L 1422.136719 559.453125 C 1481.625 559.453125 1530.285156 510.753906 1530.285156 451.292969 L 1530.285156 270.324219 C 1530.285156 210.832031 1481.625 162.132812 1422.136719 162.132812 Z M 1241.195312 162.132812 " fill-opacity="1" fill-rule="evenodd"/><path fill="#164b75" d="M 1052.335938 1327.921875 C 1008.554688 1327.921875 972.722656 1363.757812 972.722656 1407.546875 L 972.722656 1540.785156 C 972.722656 1584.570312 1008.554688 1620.410156 1052.335938 1620.410156 L 1185.554688 1620.410156 C 1229.335938 1620.410156 1265.171875 1584.570312 1265.171875 1540.785156 L 1265.171875 1407.546875 C 1265.171875 1363.757812 1229.335938 1327.921875 1185.554688 1327.921875 Z M 1052.335938 1327.921875 " fill-opacity="1" fill-rule="evenodd"/><g clip-path="url(#7278fb2eca)"><path fill="#0fc0ea" d="M 2103.96875 1200.144531 C 2039.605469 1200.144531 1986.90625 1252.820312 1986.90625 1317.222656 L 1986.90625 1513.089844 C 1986.90625 1577.460938 2039.570312 1630.167969 2103.96875 1630.167969 L 2299.804688 1630.167969 C 2364.167969 1630.167969 2416.867188 1577.496094 2416.867188 1513.089844 L 2416.867188 1317.222656 C 2416.867188 1252.851562 2364.203125 1200.144531 2299.804688 1200.144531 Z M 2103.96875 1200.144531 " fill-opacity="1" fill-rule="evenodd"/></g><g clip-path="url(#e8a0c9b324)"><path fill="#164b75" d="M 2193.40625 789.378906 C 2157.992188 789.378906 2128.976562 818.367188 2128.976562 853.785156 L 2128.976562 961.558594 C 2128.976562 996.976562 2157.960938 1025.960938 2193.40625 1025.960938 L 2301.164062 1025.960938 C 2336.574219 1025.960938 2365.558594 996.976562 2365.558594 961.558594 L 2365.558594 853.785156 C 2365.558594 818.367188 2336.574219 789.378906 2301.164062 789.378906 Z M 2193.40625 789.378906 " fill-opacity="1" fill-rule="evenodd"/></g><path fill="#2478bc" d="M 1560.65625 611.480469 C 1514.355469 611.480469 1476.453125 649.386719 1476.453125 695.695312 L 1476.453125 836.59375 C 1476.453125 882.902344 1514.355469 920.808594 1560.65625 920.808594 L 1701.53125 920.808594 C 1747.835938 920.808594 1785.734375 882.902344 1785.734375 836.59375 L 1785.734375 695.695312 C 1785.734375 649.386719 1747.835938 611.480469 1701.53125 611.480469 Z M 1560.65625 611.480469 " fill-opacity="1" fill-rule="evenodd"/><g clip-path="url(#33942e4362)"><path fill="#164b75" d="M 631.195312 607.699219 C 592.355469 607.699219 560.5625 639.5 560.5625 678.34375 L 560.5625 796.554688 C 560.5625 835.398438 592.355469 867.195312 631.195312 867.195312 L 749.386719 867.195312 C 788.226562 867.195312 820.019531 835.398438 820.019531 796.554688 L 820.019531 678.34375 C 820.019531 639.5 788.226562 607.699219 749.386719 607.699219 Z M 631.195312 607.699219 " fill-opacity="1" fill-rule="evenodd"/></g><path fill="#2478bc" d="M 901.542969 403.402344 C 869.910156 403.402344 843.996094 429.320312 843.996094 460.957031 L 843.996094 557.257812 C 843.996094 588.894531 869.875 614.808594 901.542969 614.808594 L 997.828125 614.808594 C 1029.460938 614.808594 1055.375 588.894531 1055.375 557.257812 L 1055.375 460.957031 C 1055.375 429.316406 1029.492188 403.402344 997.828125 403.402344 L 901.539062 403.402344 Z M 901.542969 403.402344 " fill-opacity="1" fill-rule="evenodd"/><g clip-path="url(#d44f9901b3)"><path fill="#589fe6" d="M 825.867188 101.636719 C 799.242188 101.636719 777.464844 123.417969 777.464844 150.046875 L 777.464844 231.09375 C 777.464844 257.722656 799.242188 279.503906 825.867188 279.503906 L 906.871094 279.503906 C 933.496094 279.503906 955.273438 257.722656 955.273438 231.09375 L 955.273438 150.046875 C 955.273438 123.417969 933.496094 101.636719 906.871094 101.636719 Z M 825.867188 101.636719 " fill-opacity="1" fill-rule="evenodd"/></g><g fill="#ffffff" fill-opacity="1"><g transform="translate(80.585927, 1921.227325)"><g><path d="M 175.375 -232.0625 L 231.734375 -232.0625 L 231.734375 0 L 175.375 0 L 81.09375 -146.03125 L 81.09375 0 L 24.71875 0 L 24.71875 -232.0625 L 81.09375 -232.0625 L 175.375 -86.03125 Z M 175.375 -232.0625 "/></g></g></g><g fill="#ffffff" fill-opacity="1"><g transform="translate(370.331506, 1921.227325)"><g><path d="M 24.71875 0 L 24.71875 -231.40625 L 81.09375 -231.40625 L 81.09375 0 Z M 24.71875 0 "/></g></g></g><g fill="#ffffff" fill-opacity="1"><g transform="translate(509.438146, 1921.227325)"><g><path d="M 45.65625 -31.46875 C 22.6875 -53.78125 11.203125 -82.078125 11.203125 -116.359375 C 11.203125 -150.640625 22.6875 -178.929688 45.65625 -201.234375 C 68.625 -223.546875 96.695312 -234.703125 129.875 -234.703125 C 155.59375 -234.703125 178.445312 -227.890625 198.4375 -214.265625 C 218.4375 -200.640625 232.394531 -181.738281 240.3125 -157.5625 L 173.0625 -157.5625 C 164.269531 -174.488281 150.203125 -182.953125 130.859375 -182.953125 C 111.523438 -182.953125 96.304688 -176.90625 85.203125 -164.8125 C 74.109375 -152.726562 68.5625 -136.578125 68.5625 -116.359375 C 68.5625 -96.140625 74.109375 -79.988281 85.203125 -67.90625 C 96.304688 -55.820312 111.523438 -49.78125 130.859375 -49.78125 C 150.203125 -49.78125 164.269531 -58.238281 173.0625 -75.15625 L 240.3125 -75.15625 C 232.394531 -50.976562 218.4375 -32.078125 198.4375 -18.453125 C 178.445312 -4.828125 155.59375 1.984375 129.875 1.984375 C 96.695312 1.984375 68.625 -9.164062 45.65625 -31.46875 Z M 45.65625 -31.46875 "/></g></g></g><g fill="#ffffff" fill-opacity="1"><g transform="translate(794.568915, 1921.227325)"><g><path d="M 81.09375 0 L 24.71875 0 L 24.71875 -231.40625 L 81.09375 -231.40625 L 81.09375 -129.875 L 157.5625 -231.40625 L 231.40625 -231.40625 L 136.140625 -115.703125 L 231.40625 0 L 158.890625 0 L 81.09375 -102.1875 Z M 81.09375 0 "/></g></g></g><g fill="#ffffff" fill-opacity="1"><g transform="translate(1065.196179, 1921.227325)"><g/></g></g><g fill="#ffffff" fill-opacity="1"><g transform="translate(1197.380649, 1921.227325)"><g><path d="M 175.375 -232.0625 L 231.734375 -232.0625 L 231.734375 0 L 175.375 0 L 81.09375 -146.03125 L 81.09375 0 L 24.71875 0 L 24.71875 -232.0625 L 81.09375 -232.0625 L 175.375 -86.03125 Z M 175.375 -232.0625 "/></g></g></g><g fill="#ffffff" fill-opacity="1"><g transform="translate(1487.126269, 1921.227325)"><g><path d="M 45.65625 -31.46875 C 22.6875 -53.78125 11.203125 -82.078125 11.203125 -116.359375 C 11.203125 -150.640625 22.6875 -178.929688 45.65625 -201.234375 C 68.625 -223.546875 96.695312 -234.703125 129.875 -234.703125 C 155.59375 -234.703125 178.445312 -227.890625 198.4375 -214.265625 C 218.4375 -200.640625 232.394531 -181.738281 240.3125 -157.5625 L 173.0625 -157.5625 C 164.269531 -174.488281 150.203125 -182.953125 130.859375 -182.953125 C 111.523438 -182.953125 96.304688 -176.90625 85.203125 -164.8125 C 74.109375 -152.726562 68.5625 -136.578125 68.5625 -116.359375 C 68.5625 -96.140625 74.109375 -79.988281 85.203125 -67.90625 C 96.304688 -55.820312 111.195312 -49.78125 129.875 -49.78125 C 143.28125 -49.78125 154.210938 -53.128906 162.671875 -59.828125 C 171.140625 -66.535156 176.800781 -75.492188 179.65625 -86.703125 L 114.390625 -86.703125 L 114.390625 -129.546875 L 240.3125 -129.546875 L 240.3125 -86.703125 C 236.132812 -65.597656 224.597656 -45.925781 205.703125 -27.6875 C 196.691406 -18.894531 185.535156 -11.75 172.234375 -6.25 C 158.941406 -0.757812 144.820312 1.984375 129.875 1.984375 C 96.695312 1.984375 68.625 -9.164062 45.65625 -31.46875 Z M 45.65625 -31.46875 "/></g></g></g><g fill="#ffffff" fill-opacity="1"><g transform="translate(1772.256997, 1921.227325)"><g><path d="M 174.203125 -67.90625 C 185.304688 -79.988281 190.859375 -96.140625 190.859375 -116.359375 C 190.859375 -136.578125 185.304688 -152.726562 174.203125 -164.8125 C 163.109375 -176.90625 148.273438 -182.953125 129.703125 -182.953125 C 111.140625 -182.953125 96.304688 -176.90625 85.203125 -164.8125 C 74.109375 -152.726562 68.5625 -136.578125 68.5625 -116.359375 C 68.5625 -96.140625 74.109375 -79.988281 85.203125 -67.90625 C 96.304688 -55.820312 111.140625 -49.78125 129.703125 -49.78125 C 148.273438 -49.78125 163.109375 -55.820312 174.203125 -67.90625 Z M 45.65625 -31.3125 C 22.6875 -53.726562 11.203125 -82.078125 11.203125 -116.359375 C 11.203125 -150.640625 22.6875 -178.929688 45.65625 -201.234375 C 68.625 -223.546875 96.753906 -234.703125 130.046875 -234.703125 C 163.335938 -234.703125 191.351562 -223.546875 214.09375 -201.234375 C 236.84375 -178.929688 248.21875 -150.640625 248.21875 -116.359375 C 248.21875 -82.078125 236.789062 -53.726562 213.9375 -31.3125 C 191.082031 -8.894531 163.0625 2.3125 129.875 2.3125 C 96.695312 2.3125 68.625 -8.894531 45.65625 -31.3125 Z M 45.65625 -31.3125 "/></g></g></g><g fill="#ffffff" fill-opacity="1"><g transform="translate(2065.298795, 1921.227325)"><g><path d="M 23.734375 -93.28125 L 23.734375 -231.40625 L 80.109375 -231.40625 L 80.109375 -93.28125 C 80.109375 -79.4375 83.515625 -68.78125 90.328125 -61.3125 C 97.140625 -53.84375 107.132812 -50.109375 120.3125 -50.109375 C 133.5 -50.109375 143.609375 -53.84375 150.640625 -61.3125 C 157.671875 -68.78125 161.1875 -79.4375 161.1875 -93.28125 L 161.1875 -231.40625 L 217.5625 -231.40625 L 217.5625 -93.28125 C 217.5625 -72.84375 212.78125 -55.207031 203.21875 -40.375 C 193.664062 -25.539062 181.582031 -14.71875 166.96875 -7.90625 C 152.351562 -1.09375 136.472656 2.3125 119.328125 2.3125 C 92.515625 2.3125 69.878906 -6.035156 51.421875 -22.734375 C 32.960938 -39.441406 23.734375 -62.957031 23.734375 -93.28125 Z M 23.734375 -93.28125 "/></g></g></g><g fill="#ffffff" fill-opacity="1"><g transform="translate(2339.551955, 1921.227325)"><g><path d="M 286.78125 -231.40625 L 286.78125 0 L 230.421875 0 L 230.421875 -130.53125 L 176.6875 0 L 134.828125 0 L 81.09375 -130.53125 L 81.09375 0 L 24.71875 0 L 24.71875 -231.40625 L 89.328125 -231.40625 L 155.921875 -71.859375 L 222.171875 -231.40625 Z M 286.78125 -231.40625 "/></g></g></g><g fill="#ffffff" fill-opacity="1"><g transform="translate(2684.345029, 1921.227325)"><g><path d="M 171.75 0 L 158.890625 -38.890625 L 75.8125 -38.890625 L 62.96875 0 L 2.96875 0 L 83.40625 -232.0625 L 151.96875 -232.0625 L 232.0625 0 Z M 89.984375 -81.75 L 144.71875 -81.75 L 117.359375 -164.15625 Z M 89.984375 -81.75 "/></g></g></g><g fill="#0fc0ea" fill-opacity="1"><g transform="translate(444.970064, 2281.644141)"><g><path d="M 60.921875 -112.3125 C 56.765625 -112.3125 53.359375 -111.207031 50.703125 -109 C 48.046875 -106.789062 46.71875 -103.609375 46.71875 -99.453125 C 46.71875 -95.304688 47.945312 -91.96875 50.40625 -89.4375 C 52.875 -86.90625 56.085938 -84.957031 60.046875 -83.59375 C 64.003906 -82.226562 68.414062 -80.929688 73.28125 -79.703125 C 78.144531 -78.472656 82.976562 -76.976562 87.78125 -75.21875 C 92.582031 -73.46875 96.960938 -71.296875 100.921875 -68.703125 C 104.878906 -66.109375 108.085938 -62.441406 110.546875 -57.703125 C 113.015625 -52.972656 114.25 -47.300781 114.25 -40.6875 C 114.25 -29.132812 109.546875 -19.238281 100.140625 -11 C 90.734375 -2.757812 78.34375 1.359375 62.96875 1.359375 C 47.59375 1.359375 35.195312 -2.335938 25.78125 -9.734375 C 16.375 -17.128906 11.671875 -27.640625 11.671875 -41.265625 L 47.109375 -41.265625 C 48.015625 -30.359375 53.59375 -24.90625 63.84375 -24.90625 C 68.644531 -24.90625 72.40625 -26.171875 75.125 -28.703125 C 77.851562 -31.234375 79.21875 -34.445312 79.21875 -38.34375 C 79.21875 -42.238281 77.984375 -45.414062 75.515625 -47.875 C 73.054688 -50.34375 69.847656 -52.289062 65.890625 -53.71875 C 61.929688 -55.144531 57.515625 -56.472656 52.640625 -57.703125 C 47.773438 -58.941406 42.941406 -60.46875 38.140625 -62.28125 C 33.347656 -64.101562 28.972656 -66.273438 25.015625 -68.796875 C 21.054688 -71.328125 17.84375 -74.960938 15.375 -79.703125 C 12.90625 -84.441406 11.671875 -90.054688 11.671875 -96.546875 C 11.671875 -109.253906 16.40625 -119.4375 25.875 -127.09375 C 35.351562 -134.75 47.457031 -138.578125 62.1875 -138.578125 C 76.914062 -138.578125 88.820312 -135.234375 97.90625 -128.546875 C 106.988281 -121.867188 111.722656 -111.332031 112.109375 -96.9375 L 75.90625 -96.9375 C 75.382812 -101.863281 73.796875 -105.65625 71.140625 -108.3125 C 68.484375 -110.976562 65.078125 -112.3125 60.921875 -112.3125 Z M 60.921875 -112.3125 "/></g></g></g><g fill="#0fc0ea" fill-opacity="1"><g transform="translate(570.892694, 2281.644141)"><g><path d="M 79.796875 -34.0625 C 84.210938 -38.726562 86.421875 -45.472656 86.421875 -54.296875 C 86.421875 -63.128906 84.148438 -69.847656 79.609375 -74.453125 C 75.066406 -79.054688 69.679688 -81.359375 63.453125 -81.359375 C 57.222656 -81.359375 51.867188 -79.054688 47.390625 -74.453125 C 42.921875 -69.847656 40.6875 -63.128906 40.6875 -54.296875 C 40.6875 -45.472656 42.988281 -38.726562 47.59375 -34.0625 C 52.195312 -29.394531 57.613281 -27.0625 63.84375 -27.0625 C 70.070312 -27.0625 75.390625 -29.394531 79.796875 -34.0625 Z M 23.25 -14.015625 C 12.289062 -24.265625 6.8125 -37.757812 6.8125 -54.5 C 6.8125 -71.238281 12.257812 -84.632812 23.15625 -94.6875 C 34.0625 -104.75 47.554688 -109.78125 63.640625 -109.78125 C 79.734375 -109.78125 93.195312 -104.75 104.03125 -94.6875 C 114.863281 -84.632812 120.28125 -71.238281 120.28125 -54.5 C 120.28125 -37.757812 114.894531 -24.265625 104.125 -14.015625 C 93.363281 -3.765625 79.9375 1.359375 63.84375 1.359375 C 47.75 1.359375 34.21875 -3.765625 23.25 -14.015625 Z M 23.25 -14.015625 "/></g></g></g><g fill="#0fc0ea" fill-opacity="1"><g transform="translate(697.983081, 2281.644141)"><g><path d="M 62.09375 -108.609375 L 62.09375 -80.96875 L 48.265625 -80.96875 L 48.265625 0 L 14.984375 0 L 14.984375 -80.96875 L 4.859375 -80.96875 L 4.859375 -108.609375 L 14.984375 -108.609375 L 14.984375 -112.703125 C 14.984375 -126.453125 18.648438 -136.503906 25.984375 -142.859375 C 33.316406 -149.222656 44.832031 -152.40625 60.53125 -152.40625 L 60.53125 -124.1875 C 56.125 -124.1875 52.976562 -123.34375 51.09375 -121.65625 C 49.207031 -119.96875 48.265625 -116.984375 48.265625 -112.703125 L 48.265625 -108.609375 Z M 62.09375 -108.609375 "/></g></g></g><g fill="#0fc0ea" fill-opacity="1"><g transform="translate(763.377181, 2281.644141)"><g><path d="M 60.734375 -28.21875 L 72.59375 -28.21875 L 72.59375 0 L 55.671875 0 C 43.472656 0 34.03125 -2.691406 27.34375 -8.078125 C 20.664062 -13.460938 17.328125 -22.707031 17.328125 -35.8125 L 17.328125 -80.96875 L 7.203125 -80.96875 L 7.203125 -108.609375 L 17.328125 -108.609375 L 17.328125 -135.078125 L 50.609375 -135.078125 L 50.609375 -108.609375 L 72.40625 -108.609375 L 72.40625 -80.96875 L 50.609375 -80.96875 L 50.609375 -35.8125 C 50.609375 -30.75 53.984375 -28.21875 60.734375 -28.21875 Z M 60.734375 -28.21875 "/></g></g></g><g fill="#0fc0ea" fill-opacity="1"><g transform="translate(844.146739, 2281.644141)"><g><path d="M 136.640625 -108.609375 L 167.96875 -108.609375 L 135.46875 0 L 99.65625 0 L 84.46875 -64.234375 L 69.09375 0 L 33.28125 0 L 0.78125 -108.609375 L 34.0625 -108.609375 L 51 -32.3125 L 67.734375 -108.609375 L 102.96875 -108.609375 L 119.703125 -32.3125 Z M 136.640625 -108.609375 "/></g></g></g><g fill="#0fc0ea" fill-opacity="1"><g transform="translate(1012.692294, 2281.644141)"><g><path d="M 80.78125 -34.4375 C 85.582031 -39.113281 87.984375 -45.734375 87.984375 -54.296875 C 87.984375 -62.867188 85.582031 -69.457031 80.78125 -74.0625 C 75.976562 -78.664062 70.460938 -80.96875 64.234375 -80.96875 C 58.003906 -80.96875 52.488281 -78.628906 47.6875 -73.953125 C 42.882812 -69.285156 40.484375 -62.671875 40.484375 -54.109375 C 40.484375 -45.546875 42.882812 -38.957031 47.6875 -34.34375 C 52.488281 -29.738281 58.003906 -27.4375 64.234375 -27.4375 C 70.460938 -27.4375 75.976562 -29.769531 80.78125 -34.4375 Z M 21.015625 -14.203125 C 11.421875 -24.585938 6.625 -37.890625 6.625 -54.109375 C 6.625 -70.328125 11.421875 -83.660156 21.015625 -94.109375 C 30.617188 -104.554688 42.332031 -109.78125 56.15625 -109.78125 C 69.976562 -109.78125 80.585938 -104.65625 87.984375 -94.40625 L 87.984375 -108.609375 L 121.265625 -108.609375 L 121.265625 0 L 87.984375 0 L 87.984375 -15.765625 C 79.929688 -4.347656 69.15625 1.359375 55.65625 1.359375 C 42.164062 1.359375 30.617188 -3.828125 21.015625 -14.203125 Z M 21.015625 -14.203125 "/></g></g></g><g fill="#0fc0ea" fill-opacity="1"><g transform="translate(1148.540796, 2281.644141)"><g><path d="M 47.875 -108.609375 L 47.875 -88.359375 C 55.664062 -102.640625 66.050781 -109.78125 79.03125 -109.78125 L 79.03125 -75.90625 L 70.84375 -75.90625 C 63.1875 -75.90625 57.441406 -74.085938 53.609375 -70.453125 C 49.785156 -66.828125 47.875 -60.472656 47.875 -51.390625 L 47.875 0 L 14.59375 0 L 14.59375 -108.609375 Z M 47.875 -108.609375 "/></g></g></g><g fill="#0fc0ea" fill-opacity="1"><g transform="translate(1231.061941, 2281.644141)"><g><path d="M 60.734375 1.359375 C 44.898438 1.359375 31.921875 -3.734375 21.796875 -13.921875 C 11.679688 -24.109375 6.625 -37.632812 6.625 -54.5 C 6.625 -71.363281 11.648438 -84.789062 21.703125 -94.78125 C 31.753906 -104.78125 44.757812 -109.78125 60.71875 -109.78125 C 76.6875 -109.78125 89.925781 -104.847656 100.4375 -94.984375 C 110.945312 -85.117188 116.203125 -71.429688 116.203125 -53.921875 C 116.203125 -50.148438 115.941406 -46.644531 115.421875 -43.40625 L 40.6875 -43.40625 C 41.332031 -38.601562 43.46875 -34.675781 47.09375 -31.625 C 50.726562 -28.582031 54.65625 -27.0625 58.875 -27.0625 C 63.09375 -27.0625 66.238281 -27.476562 68.3125 -28.3125 C 70.394531 -29.15625 71.921875 -30 72.890625 -30.84375 C 73.867188 -31.6875 75.132812 -33.082031 76.6875 -35.03125 L 112.703125 -35.03125 C 109.585938 -24.132812 103.359375 -15.34375 94.015625 -8.65625 C 84.671875 -1.976562 73.578125 1.359375 60.734375 1.359375 Z M 81.546875 -64.234375 C 81.035156 -69.296875 78.832031 -73.414062 74.9375 -76.59375 C 71.039062 -79.769531 66.429688 -81.359375 61.109375 -81.359375 C 55.796875 -81.359375 51.320312 -79.769531 47.6875 -76.59375 C 44.050781 -73.414062 41.78125 -69.296875 40.875 -64.234375 Z M 81.546875 -64.234375 "/></g></g></g><g fill="#0fc0ea" fill-opacity="1"><g transform="translate(1354.065139, 2281.644141)"><g/></g></g><g fill="#0fc0ea" fill-opacity="1"><g transform="translate(1412.45271, 2281.644141)"><g><path d="M 47.875 -25.296875 L 62.671875 -25.296875 C 75.390625 -25.296875 85.378906 -29.1875 92.640625 -36.96875 C 99.910156 -44.757812 103.546875 -55.207031 103.546875 -68.3125 C 103.546875 -81.425781 99.910156 -91.875 92.640625 -99.65625 C 85.378906 -107.4375 75.390625 -111.328125 62.671875 -111.328125 L 47.875 -111.328125 Z M 62.671875 -136.640625 C 84.472656 -136.640625 102.378906 -130.3125 116.390625 -117.65625 C 130.410156 -105.007812 137.421875 -88.597656 137.421875 -68.421875 C 137.421875 -48.242188 130.410156 -31.796875 116.390625 -19.078125 C 102.378906 -6.359375 84.472656 0 62.671875 0 L 14.59375 0 L 14.59375 -136.640625 Z M 62.671875 -136.640625 "/></g></g></g><g fill="#0fc0ea" fill-opacity="1"><g transform="translate(1556.280857, 2281.644141)"><g><path d="M 60.734375 1.359375 C 44.898438 1.359375 31.921875 -3.734375 21.796875 -13.921875 C 11.679688 -24.109375 6.625 -37.632812 6.625 -54.5 C 6.625 -71.363281 11.648438 -84.789062 21.703125 -94.78125 C 31.753906 -104.78125 44.757812 -109.78125 60.71875 -109.78125 C 76.6875 -109.78125 89.925781 -104.847656 100.4375 -94.984375 C 110.945312 -85.117188 116.203125 -71.429688 116.203125 -53.921875 C 116.203125 -50.148438 115.941406 -46.644531 115.421875 -43.40625 L 40.6875 -43.40625 C 41.332031 -38.601562 43.46875 -34.675781 47.09375 -31.625 C 50.726562 -28.582031 54.65625 -27.0625 58.875 -27.0625 C 63.09375 -27.0625 66.238281 -27.476562 68.3125 -28.3125 C 70.394531 -29.15625 71.921875 -30 72.890625 -30.84375 C 73.867188 -31.6875 75.132812 -33.082031 76.6875 -35.03125 L 112.703125 -35.03125 C 109.585938 -24.132812 103.359375 -15.34375 94.015625 -8.65625 C 84.671875 -1.976562 73.578125 1.359375 60.734375 1.359375 Z M 81.546875 -64.234375 C 81.035156 -69.296875 78.832031 -73.414062 74.9375 -76.59375 C 71.039062 -79.769531 66.429688 -81.359375 61.109375 -81.359375 C 55.796875 -81.359375 51.320312 -79.769531 47.6875 -76.59375 C 44.050781 -73.414062 41.78125 -69.296875 40.875 -64.234375 Z M 81.546875 -64.234375 "/></g></g></g><g fill="#0fc0ea" fill-opacity="1"><g transform="translate(1679.284056, 2281.644141)"><g><path d="M 0.78125 -108.609375 L 36.203125 -108.609375 L 60.921875 -27.828125 L 85.640625 -108.609375 L 121.0625 -108.609375 L 82.53125 0 L 39.3125 0 Z M 0.78125 -108.609375 "/></g></g></g><g fill="#0fc0ea" fill-opacity="1"><g transform="translate(1801.119498, 2281.644141)"><g><path d="M 60.734375 1.359375 C 44.898438 1.359375 31.921875 -3.734375 21.796875 -13.921875 C 11.679688 -24.109375 6.625 -37.632812 6.625 -54.5 C 6.625 -71.363281 11.648438 -84.789062 21.703125 -94.78125 C 31.753906 -104.78125 44.757812 -109.78125 60.71875 -109.78125 C 76.6875 -109.78125 89.925781 -104.847656 100.4375 -94.984375 C 110.945312 -85.117188 116.203125 -71.429688 116.203125 -53.921875 C 116.203125 -50.148438 115.941406 -46.644531 115.421875 -43.40625 L 40.6875 -43.40625 C 41.332031 -38.601562 43.46875 -34.675781 47.09375 -31.625 C 50.726562 -28.582031 54.65625 -27.0625 58.875 -27.0625 C 63.09375 -27.0625 66.238281 -27.476562 68.3125 -28.3125 C 70.394531 -29.15625 71.921875 -30 72.890625 -30.84375 C 73.867188 -31.6875 75.132812 -33.082031 76.6875 -35.03125 L 112.703125 -35.03125 C 109.585938 -24.132812 103.359375 -15.34375 94.015625 -8.65625 C 84.671875 -1.976562 73.578125 1.359375 60.734375 1.359375 Z M 81.546875 -64.234375 C 81.035156 -69.296875 78.832031 -73.414062 74.9375 -76.59375 C 71.039062 -79.769531 66.429688 -81.359375 61.109375 -81.359375 C 55.796875 -81.359375 51.320312 -79.769531 47.6875 -76.59375 C 44.050781 -73.414062 41.78125 -69.296875 40.875 -64.234375 Z M 81.546875 -64.234375 "/></g></g></g><g fill="#0fc0ea" fill-opacity="1"><g transform="translate(1924.122696, 2281.644141)"><g><path d="M 14.59375 0 L 14.59375 -144.03125 L 47.875 -144.03125 L 47.875 0 Z M 14.59375 0 "/></g></g></g><g fill="#0fc0ea" fill-opacity="1"><g transform="translate(1986.597547, 2281.644141)"><g><path d="M 79.796875 -34.0625 C 84.210938 -38.726562 86.421875 -45.472656 86.421875 -54.296875 C 86.421875 -63.128906 84.148438 -69.847656 79.609375 -74.453125 C 75.066406 -79.054688 69.679688 -81.359375 63.453125 -81.359375 C 57.222656 -81.359375 51.867188 -79.054688 47.390625 -74.453125 C 42.921875 -69.847656 40.6875 -63.128906 40.6875 -54.296875 C 40.6875 -45.472656 42.988281 -38.726562 47.59375 -34.0625 C 52.195312 -29.394531 57.613281 -27.0625 63.84375 -27.0625 C 70.070312 -27.0625 75.390625 -29.394531 79.796875 -34.0625 Z M 23.25 -14.015625 C 12.289062 -24.265625 6.8125 -37.757812 6.8125 -54.5 C 6.8125 -71.238281 12.257812 -84.632812 23.15625 -94.6875 C 34.0625 -104.75 47.554688 -109.78125 63.640625 -109.78125 C 79.734375 -109.78125 93.195312 -104.75 104.03125 -94.6875 C 114.863281 -84.632812 120.28125 -71.238281 120.28125 -54.5 C 120.28125 -37.757812 114.894531 -24.265625 104.125 -14.015625 C 93.363281 -3.765625 79.9375 1.359375 63.84375 1.359375 C 47.75 1.359375 34.21875 -3.765625 23.25 -14.015625 Z M 23.25 -14.015625 "/></g></g></g><g fill="#0fc0ea" fill-opacity="1"><g transform="translate(2113.687933, 2281.644141)"><g><path d="M 88.171875 -34.34375 C 92.972656 -38.957031 95.375 -45.546875 95.375 -54.109375 C 95.375 -62.671875 92.972656 -69.285156 88.171875 -73.953125 C 83.367188 -78.628906 77.851562 -80.96875 71.625 -80.96875 C 65.394531 -80.96875 59.878906 -78.664062 55.078125 -74.0625 C 50.273438 -69.457031 47.875 -62.867188 47.875 -54.296875 C 47.875 -45.734375 50.273438 -39.113281 55.078125 -34.4375 C 59.878906 -29.769531 65.394531 -27.4375 71.625 -27.4375 C 77.851562 -27.4375 83.367188 -29.738281 88.171875 -34.34375 Z M 47.875 -94.40625 C 55.269531 -104.65625 65.878906 -109.78125 79.703125 -109.78125 C 93.523438 -109.78125 105.234375 -104.554688 114.828125 -94.109375 C 124.429688 -83.660156 129.234375 -70.328125 129.234375 -54.109375 C 129.234375 -37.890625 124.429688 -24.585938 114.828125 -14.203125 C 105.234375 -3.828125 93.625 1.359375 80 1.359375 C 66.375 1.359375 55.664062 -4.347656 47.875 -15.765625 L 47.875 51.78125 L 14.59375 51.78125 L 14.59375 -108.609375 L 47.875 -108.609375 Z M 47.875 -94.40625 "/></g></g></g><g fill="#0fc0ea" fill-opacity="1"><g transform="translate(2249.536435, 2281.644141)"><g><path d="M 60.734375 1.359375 C 44.898438 1.359375 31.921875 -3.734375 21.796875 -13.921875 C 11.679688 -24.109375 6.625 -37.632812 6.625 -54.5 C 6.625 -71.363281 11.648438 -84.789062 21.703125 -94.78125 C 31.753906 -104.78125 44.757812 -109.78125 60.71875 -109.78125 C 76.6875 -109.78125 89.925781 -104.847656 100.4375 -94.984375 C 110.945312 -85.117188 116.203125 -71.429688 116.203125 -53.921875 C 116.203125 -50.148438 115.941406 -46.644531 115.421875 -43.40625 L 40.6875 -43.40625 C 41.332031 -38.601562 43.46875 -34.675781 47.09375 -31.625 C 50.726562 -28.582031 54.65625 -27.0625 58.875 -27.0625 C 63.09375 -27.0625 66.238281 -27.476562 68.3125 -28.3125 C 70.394531 -29.15625 71.921875 -30 72.890625 -30.84375 C 73.867188 -31.6875 75.132812 -33.082031 76.6875 -35.03125 L 112.703125 -35.03125 C 109.585938 -24.132812 103.359375 -15.34375 94.015625 -8.65625 C 84.671875 -1.976562 73.578125 1.359375 60.734375 1.359375 Z M 81.546875 -64.234375 C 81.035156 -69.296875 78.832031 -73.414062 74.9375 -76.59375 C 71.039062 -79.769531 66.429688 -81.359375 61.109375 -81.359375 C 55.796875 -81.359375 51.320312 -79.769531 47.6875 -76.59375 C 44.050781 -73.414062 41.78125 -69.296875 40.875 -64.234375 Z M 81.546875 -64.234375 "/></g></g></g><g fill="#0fc0ea" fill-opacity="1"><g transform="translate(2372.539544, 2281.644141)"><g><path d="M 47.875 -108.609375 L 47.875 -88.359375 C 55.664062 -102.640625 66.050781 -109.78125 79.03125 -109.78125 L 79.03125 -75.90625 L 70.84375 -75.90625 C 63.1875 -75.90625 57.441406 -74.085938 53.609375 -70.453125 C 49.785156 -66.828125 47.875 -60.472656 47.875 -51.390625 L 47.875 0 L 14.59375 0 L 14.59375 -108.609375 Z M 47.875 -108.609375 "/></g></g></g></svg>