<svg xmlns="http://www.w3.org/2000/svg" xmlns:xlink="http://www.w3.org/1999/xlink" width="500" zoomAndPan="magnify" viewBox="0 0 375 374.999991" height="500" preserveAspectRatio="xMidYMid meet" version="1.0"><defs><g/><clipPath id="f2b59de898"><path d="M 86.640625 20 L 277.890625 20 L 277.890625 203 L 86.640625 203 Z M 86.640625 20 " clip-rule="nonzero"/></clipPath><clipPath id="d2fa03ef8d"><path d="M 248 150 L 277.890625 150 L 277.890625 203.953125 L 248 203.953125 Z M 248 150 " clip-rule="nonzero"/></clipPath><clipPath id="abfe00c9ce"><path d="M 266 98 L 277.890625 98 L 277.890625 129 L 266 129 Z M 266 98 " clip-rule="nonzero"/></clipPath><clipPath id="a6dfecd58b"><path d="M 86.640625 76 L 103 76 L 103 109 L 86.640625 109 Z M 86.640625 76 " clip-rule="nonzero"/></clipPath><clipPath id="80359f26b0"><path d="M 97 12.703125 L 120 12.703125 L 120 35 L 97 35 Z M 97 12.703125 " clip-rule="nonzero"/></clipPath></defs><g clip-path="url(#f2b59de898)"><path fill="#2478bc" d="M 214.199219 154.949219 L 198.664062 154.949219 C 197.859375 154.949219 197.058594 155.023438 196.265625 155.164062 L 194.003906 155.570312 L 167.113281 128.660156 L 167.519531 126.398438 C 167.664062 125.605469 167.734375 124.800781 167.734375 123.996094 L 167.734375 103.554688 C 167.734375 96.035156 161.589844 89.886719 154.074219 89.886719 L 133.648438 89.886719 C 126.136719 89.886719 119.984375 96.035156 119.984375 103.554688 L 119.984375 123.996094 C 119.984375 124.722656 120.046875 125.445312 120.15625 126.15625 L 120.5625 128.777344 L 99.09375 144.761719 L 97.304688 144.511719 C 97 144.472656 96.6875 144.453125 96.375 144.453125 L 77.160156 144.453125 C 73.269531 144.453125 70.070312 147.652344 70.070312 151.546875 L 70.070312 170.773438 C 70.070312 174.667969 73.269531 177.867188 77.160156 177.867188 L 96.375 177.867188 C 100.265625 177.867188 103.464844 174.667969 103.464844 170.773438 L 103.464844 150.640625 L 124.808594 134.761719 L 127.261719 136.074219 C 129.234375 137.125 131.414062 137.667969 133.648438 137.667969 L 154.074219 137.667969 C 154.878906 137.667969 155.683594 137.59375 156.476562 137.453125 L 158.738281 137.042969 L 185.625 163.953125 L 185.21875 166.21875 C 185.078125 167.011719 185.003906 167.816406 185.003906 168.617188 L 185.003906 189.066406 C 185.003906 196.585938 191.148438 202.738281 198.664062 202.738281 L 219.09375 202.738281 C 226.609375 202.738281 232.753906 196.585938 232.753906 189.066406 L 232.753906 168.617188 C 232.753906 165.003906 231.308594 161.546875 228.765625 158.988281 L 226.535156 156.746094 L 266.246094 77.265625 L 288.691406 77.265625 C 296.101562 77.265625 302.195312 71.175781 302.195312 63.757812 L 302.195312 33.785156 C 302.195312 26.363281 296.109375 20.273438 288.691406 20.273438 L 258.742188 20.273438 C 251.328125 20.273438 245.242188 26.363281 245.242188 33.785156 L 245.242188 63.757812 C 245.242188 67.945312 247.195312 71.851562 250.488281 74.414062 L 253.324219 76.632812 L 214.191406 154.949219 Z M 214.199219 154.949219 " fill-opacity="1" fill-rule="evenodd"/></g><path fill="#0fc0ea" d="M 211.941406 32.378906 C 207.882812 32.378906 204.558594 35.707031 204.558594 39.765625 L 204.558594 52.132812 C 204.558594 56.195312 207.882812 59.519531 211.941406 59.519531 L 224.296875 59.519531 C 228.359375 59.519531 231.679688 56.191406 231.679688 52.132812 L 231.679688 39.765625 C 231.679688 35.703125 228.355469 32.378906 224.296875 32.378906 Z M 211.941406 32.378906 " fill-opacity="1" fill-rule="evenodd"/><path fill="#164b75" d="M 155.1875 20.273438 C 147.746094 20.273438 141.664062 26.367188 141.664062 33.8125 L 141.664062 56.453125 C 141.664062 63.898438 147.746094 69.988281 155.1875 69.988281 L 177.8125 69.988281 C 185.25 69.988281 191.335938 63.894531 191.335938 56.453125 L 191.335938 33.8125 C 191.335938 26.367188 185.25 20.273438 177.8125 20.273438 Z M 155.1875 20.273438 " fill-opacity="1" fill-rule="evenodd"/><path fill="#164b75" d="M 131.570312 166.140625 C 126.09375 166.140625 121.613281 170.625 121.613281 176.101562 L 121.613281 192.773438 C 121.613281 198.253906 126.09375 202.738281 131.570312 202.738281 L 148.226562 202.738281 C 153.703125 202.738281 158.183594 198.253906 158.183594 192.773438 L 158.183594 176.101562 C 158.183594 170.625 153.703125 166.140625 148.226562 166.140625 Z M 131.570312 166.140625 " fill-opacity="1" fill-rule="evenodd"/><g clip-path="url(#d2fa03ef8d)"><path fill="#0fc0ea" d="M 263.074219 150.152344 C 255.027344 150.152344 248.433594 156.742188 248.433594 164.800781 L 248.433594 189.308594 C 248.433594 197.363281 255.019531 203.957031 263.074219 203.957031 L 287.5625 203.957031 C 295.613281 203.957031 302.203125 197.367188 302.203125 189.308594 L 302.203125 164.800781 C 302.203125 156.746094 295.617188 150.152344 287.5625 150.152344 Z M 263.074219 150.152344 " fill-opacity="1" fill-rule="evenodd"/></g><g clip-path="url(#abfe00c9ce)"><path fill="#164b75" d="M 274.257812 98.757812 C 269.828125 98.757812 266.203125 102.382812 266.203125 106.816406 L 266.203125 120.300781 C 266.203125 124.730469 269.824219 128.359375 274.257812 128.359375 L 287.734375 128.359375 C 292.160156 128.359375 295.785156 124.730469 295.785156 120.300781 L 295.785156 106.816406 C 295.785156 102.382812 292.160156 98.757812 287.734375 98.757812 Z M 274.257812 98.757812 " fill-opacity="1" fill-rule="evenodd"/></g><path fill="#2478bc" d="M 195.132812 76.496094 C 189.34375 76.496094 184.605469 81.242188 184.605469 87.035156 L 184.605469 104.664062 C 184.605469 110.457031 189.34375 115.203125 195.132812 115.203125 L 212.75 115.203125 C 218.539062 115.203125 223.28125 110.457031 223.28125 104.664062 L 223.28125 87.035156 C 223.28125 81.242188 218.539062 76.496094 212.75 76.496094 Z M 195.132812 76.496094 " fill-opacity="1" fill-rule="evenodd"/><g clip-path="url(#a6dfecd58b)"><path fill="#164b75" d="M 78.90625 76.023438 C 74.050781 76.023438 70.074219 80.003906 70.074219 84.863281 L 70.074219 99.65625 C 70.074219 104.515625 74.050781 108.492188 78.90625 108.492188 L 93.6875 108.492188 C 98.542969 108.492188 102.519531 104.515625 102.519531 99.65625 L 102.519531 84.863281 C 102.519531 80.003906 98.542969 76.023438 93.6875 76.023438 Z M 78.90625 76.023438 " fill-opacity="1" fill-rule="evenodd"/></g><path fill="#2478bc" d="M 112.710938 50.460938 C 108.757812 50.460938 105.515625 53.703125 105.515625 57.664062 L 105.515625 69.710938 C 105.515625 73.671875 108.753906 76.914062 112.710938 76.914062 L 124.753906 76.914062 C 128.707031 76.914062 131.949219 73.671875 131.949219 69.710938 L 131.949219 57.664062 C 131.949219 53.703125 128.714844 50.460938 124.753906 50.460938 Z M 112.710938 50.460938 " fill-opacity="1" fill-rule="evenodd"/><g clip-path="url(#80359f26b0)"><path fill="#589fe6" d="M 103.25 12.703125 C 99.921875 12.703125 97.199219 15.429688 97.199219 18.761719 L 97.199219 28.902344 C 97.199219 32.234375 99.921875 34.960938 103.25 34.960938 L 113.378906 34.960938 C 116.707031 34.960938 119.433594 32.234375 119.433594 28.902344 L 119.433594 18.761719 C 119.433594 15.429688 116.707031 12.703125 113.378906 12.703125 Z M 103.25 12.703125 " fill-opacity="1" fill-rule="evenodd"/></g><g fill="#ffffff" fill-opacity="1"><g transform="translate(10.073244, 240.153397)"><g><path d="M 21.921875 -29 L 28.96875 -29 L 28.96875 0 L 21.921875 0 L 10.140625 -18.25 L 10.140625 0 L 3.09375 0 L 3.09375 -29 L 10.140625 -29 L 21.921875 -10.75 Z M 21.921875 -29 "/></g></g></g><g fill="#ffffff" fill-opacity="1"><g transform="translate(46.291441, 240.153397)"><g><path d="M 3.09375 0 L 3.09375 -28.921875 L 10.140625 -28.921875 L 10.140625 0 Z M 3.09375 0 "/></g></g></g><g fill="#ffffff" fill-opacity="1"><g transform="translate(63.679771, 240.153397)"><g><path d="M 5.703125 -3.921875 C 2.835938 -6.710938 1.40625 -10.25 1.40625 -14.53125 C 1.40625 -18.820312 2.835938 -22.363281 5.703125 -25.15625 C 8.578125 -27.945312 12.085938 -29.34375 16.234375 -29.34375 C 19.453125 -29.34375 22.304688 -28.488281 24.796875 -26.78125 C 27.296875 -25.082031 29.039062 -22.71875 30.03125 -19.6875 L 21.625 -19.6875 C 20.53125 -21.8125 18.773438 -22.875 16.359375 -22.875 C 13.941406 -22.875 12.035156 -22.113281 10.640625 -20.59375 C 9.253906 -19.082031 8.5625 -17.0625 8.5625 -14.53125 C 8.5625 -12.007812 9.253906 -9.992188 10.640625 -8.484375 C 12.035156 -6.972656 13.941406 -6.21875 16.359375 -6.21875 C 18.773438 -6.21875 20.53125 -7.273438 21.625 -9.390625 L 30.03125 -9.390625 C 29.039062 -6.367188 27.296875 -4.003906 24.796875 -2.296875 C 22.304688 -0.597656 19.453125 0.25 16.234375 0.25 C 12.085938 0.25 8.578125 -1.140625 5.703125 -3.921875 Z M 5.703125 -3.921875 "/></g></g></g><g fill="#ffffff" fill-opacity="1"><g transform="translate(99.321116, 240.153397)"><g><path d="M 10.140625 0 L 3.09375 0 L 3.09375 -28.921875 L 10.140625 -28.921875 L 10.140625 -16.234375 L 19.6875 -28.921875 L 28.921875 -28.921875 L 17.015625 -14.46875 L 28.921875 0 L 19.859375 0 L 10.140625 -12.765625 Z M 10.140625 0 "/></g></g></g><g fill="#ffffff" fill-opacity="1"><g transform="translate(133.149523, 240.153397)"><g/></g></g><g fill="#ffffff" fill-opacity="1"><g transform="translate(149.672582, 240.153397)"><g><path d="M 21.921875 -29 L 28.96875 -29 L 28.96875 0 L 21.921875 0 L 10.140625 -18.25 L 10.140625 0 L 3.09375 0 L 3.09375 -29 L 10.140625 -29 L 21.921875 -10.75 Z M 21.921875 -29 "/></g></g></g><g fill="#ffffff" fill-opacity="1"><g transform="translate(185.890784, 240.153397)"><g><path d="M 5.703125 -3.921875 C 2.835938 -6.710938 1.40625 -10.25 1.40625 -14.53125 C 1.40625 -18.820312 2.835938 -22.363281 5.703125 -25.15625 C 8.578125 -27.945312 12.085938 -29.34375 16.234375 -29.34375 C 19.453125 -29.34375 22.304688 -28.488281 24.796875 -26.78125 C 27.296875 -25.082031 29.039062 -22.71875 30.03125 -19.6875 L 21.625 -19.6875 C 20.53125 -21.8125 18.773438 -22.875 16.359375 -22.875 C 13.941406 -22.875 12.035156 -22.113281 10.640625 -20.59375 C 9.253906 -19.082031 8.5625 -17.0625 8.5625 -14.53125 C 8.5625 -12.007812 9.253906 -9.992188 10.640625 -8.484375 C 12.035156 -6.972656 13.898438 -6.21875 16.234375 -6.21875 C 17.910156 -6.21875 19.273438 -6.632812 20.328125 -7.46875 C 21.390625 -8.3125 22.097656 -9.4375 22.453125 -10.84375 L 14.296875 -10.84375 L 14.296875 -16.1875 L 30.03125 -16.1875 L 30.03125 -10.84375 C 29.507812 -8.195312 28.066406 -5.738281 25.703125 -3.46875 C 24.578125 -2.363281 23.179688 -1.46875 21.515625 -0.78125 C 19.859375 -0.09375 18.097656 0.25 16.234375 0.25 C 12.085938 0.25 8.578125 -1.140625 5.703125 -3.921875 Z M 5.703125 -3.921875 "/></g></g></g><g fill="#ffffff" fill-opacity="1"><g transform="translate(221.532124, 240.153397)"><g><path d="M 21.765625 -8.484375 C 23.160156 -9.992188 23.859375 -12.007812 23.859375 -14.53125 C 23.859375 -17.0625 23.160156 -19.082031 21.765625 -20.59375 C 20.378906 -22.113281 18.523438 -22.875 16.203125 -22.875 C 13.890625 -22.875 12.035156 -22.113281 10.640625 -20.59375 C 9.253906 -19.082031 8.5625 -17.0625 8.5625 -14.53125 C 8.5625 -12.007812 9.253906 -9.992188 10.640625 -8.484375 C 12.035156 -6.972656 13.890625 -6.21875 16.203125 -6.21875 C 18.523438 -6.21875 20.378906 -6.972656 21.765625 -8.484375 Z M 5.703125 -3.90625 C 2.835938 -6.707031 1.40625 -10.25 1.40625 -14.53125 C 1.40625 -18.820312 2.835938 -22.363281 5.703125 -25.15625 C 8.578125 -27.945312 12.09375 -29.34375 16.25 -29.34375 C 20.414062 -29.34375 23.921875 -27.945312 26.765625 -25.15625 C 29.609375 -22.363281 31.03125 -18.820312 31.03125 -14.53125 C 31.03125 -10.25 29.597656 -6.707031 26.734375 -3.90625 C 23.878906 -1.113281 20.378906 0.28125 16.234375 0.28125 C 12.085938 0.28125 8.578125 -1.113281 5.703125 -3.90625 Z M 5.703125 -3.90625 "/></g></g></g><g fill="#ffffff" fill-opacity="1"><g transform="translate(258.162348, 240.153397)"><g><path d="M 2.96875 -11.65625 L 2.96875 -28.921875 L 10.015625 -28.921875 L 10.015625 -11.65625 C 10.015625 -9.925781 10.4375 -8.59375 11.28125 -7.65625 C 12.132812 -6.726562 13.382812 -6.265625 15.03125 -6.265625 C 16.6875 -6.265625 17.953125 -6.726562 18.828125 -7.65625 C 19.703125 -8.59375 20.140625 -9.925781 20.140625 -11.65625 L 20.140625 -28.921875 L 27.1875 -28.921875 L 27.1875 -11.65625 C 27.1875 -9.101562 26.585938 -6.898438 25.390625 -5.046875 C 24.203125 -3.191406 22.691406 -1.835938 20.859375 -0.984375 C 19.035156 -0.140625 17.054688 0.28125 14.921875 0.28125 C 11.566406 0.28125 8.734375 -0.757812 6.421875 -2.84375 C 4.117188 -4.925781 2.96875 -7.863281 2.96875 -11.65625 Z M 2.96875 -11.65625 "/></g></g></g><g fill="#ffffff" fill-opacity="1"><g transform="translate(292.443992, 240.153397)"><g><path d="M 35.84375 -28.921875 L 35.84375 0 L 28.796875 0 L 28.796875 -16.3125 L 22.078125 0 L 16.859375 0 L 10.140625 -16.3125 L 10.140625 0 L 3.09375 0 L 3.09375 -28.921875 L 11.171875 -28.921875 L 19.484375 -8.984375 L 27.765625 -28.921875 Z M 35.84375 -28.921875 "/></g></g></g><g fill="#ffffff" fill-opacity="1"><g transform="translate(335.543126, 240.153397)"><g><path d="M 21.46875 0 L 19.859375 -4.859375 L 9.484375 -4.859375 L 7.875 0 L 0.375 0 L 10.421875 -29 L 19 -29 L 29 0 Z M 11.25 -10.21875 L 18.09375 -10.21875 L 14.671875 -20.515625 Z M 11.25 -10.21875 "/></g></g></g><g fill="#0fc0ea" fill-opacity="1"><g transform="translate(55.621261, 285.205498)"><g><path d="M 7.609375 -14.03125 C 7.097656 -14.03125 6.675781 -13.890625 6.34375 -13.609375 C 6.007812 -13.335938 5.84375 -12.941406 5.84375 -12.421875 C 5.84375 -11.910156 5.992188 -11.492188 6.296875 -11.171875 C 6.609375 -10.859375 7.007812 -10.613281 7.5 -10.4375 C 8 -10.269531 8.550781 -10.109375 9.15625 -9.953125 C 9.769531 -9.804688 10.375 -9.625 10.96875 -9.40625 C 11.570312 -9.1875 12.117188 -8.910156 12.609375 -8.578125 C 13.109375 -8.253906 13.507812 -7.796875 13.8125 -7.203125 C 14.125 -6.617188 14.28125 -5.910156 14.28125 -5.078125 C 14.28125 -3.640625 13.691406 -2.40625 12.515625 -1.375 C 11.335938 -0.34375 9.785156 0.171875 7.859375 0.171875 C 5.941406 0.171875 4.394531 -0.289062 3.21875 -1.21875 C 2.039062 -2.144531 1.453125 -3.457031 1.453125 -5.15625 L 5.890625 -5.15625 C 6.003906 -3.789062 6.703125 -3.109375 7.984375 -3.109375 C 8.578125 -3.109375 9.046875 -3.265625 9.390625 -3.578125 C 9.734375 -3.898438 9.90625 -4.300781 9.90625 -4.78125 C 9.90625 -5.269531 9.75 -5.671875 9.4375 -5.984375 C 9.132812 -6.296875 8.734375 -6.539062 8.234375 -6.71875 C 7.742188 -6.894531 7.191406 -7.054688 6.578125 -7.203125 C 5.972656 -7.359375 5.367188 -7.550781 4.765625 -7.78125 C 4.171875 -8.007812 3.625 -8.28125 3.125 -8.59375 C 2.632812 -8.914062 2.234375 -9.367188 1.921875 -9.953125 C 1.609375 -10.546875 1.453125 -11.25 1.453125 -12.0625 C 1.453125 -13.65625 2.046875 -14.929688 3.234375 -15.890625 C 4.421875 -16.847656 5.929688 -17.328125 7.765625 -17.328125 C 9.609375 -17.328125 11.097656 -16.90625 12.234375 -16.0625 C 13.367188 -15.226562 13.960938 -13.910156 14.015625 -12.109375 L 9.484375 -12.109375 C 9.421875 -12.734375 9.222656 -13.207031 8.890625 -13.53125 C 8.554688 -13.863281 8.128906 -14.03125 7.609375 -14.03125 Z M 7.609375 -14.03125 "/></g></g></g><g fill="#0fc0ea" fill-opacity="1"><g transform="translate(71.361589, 285.205498)"><g><path d="M 9.96875 -4.25 C 10.519531 -4.84375 10.796875 -5.6875 10.796875 -6.78125 C 10.796875 -7.882812 10.507812 -8.722656 9.9375 -9.296875 C 9.375 -9.878906 8.703125 -10.171875 7.921875 -10.171875 C 7.148438 -10.171875 6.484375 -9.878906 5.921875 -9.296875 C 5.359375 -8.722656 5.078125 -7.882812 5.078125 -6.78125 C 5.078125 -5.6875 5.363281 -4.84375 5.9375 -4.25 C 6.519531 -3.664062 7.195312 -3.375 7.96875 -3.375 C 8.75 -3.375 9.414062 -3.664062 9.96875 -4.25 Z M 2.90625 -1.75 C 1.53125 -3.03125 0.84375 -4.71875 0.84375 -6.8125 C 0.84375 -8.90625 1.523438 -10.578125 2.890625 -11.828125 C 4.253906 -13.085938 5.941406 -13.71875 7.953125 -13.71875 C 9.960938 -13.71875 11.644531 -13.085938 13 -11.828125 C 14.351562 -10.578125 15.03125 -8.90625 15.03125 -6.8125 C 15.03125 -4.71875 14.359375 -3.03125 13.015625 -1.75 C 11.671875 -0.46875 9.992188 0.171875 7.984375 0.171875 C 5.972656 0.171875 4.28125 -0.46875 2.90625 -1.75 Z M 2.90625 -1.75 "/></g></g></g><g fill="#0fc0ea" fill-opacity="1"><g transform="translate(87.247887, 285.205498)"><g><path d="M 7.765625 -13.578125 L 7.765625 -10.125 L 6.03125 -10.125 L 6.03125 0 L 1.875 0 L 1.875 -10.125 L 0.609375 -10.125 L 0.609375 -13.578125 L 1.875 -13.578125 L 1.875 -14.09375 C 1.875 -15.8125 2.332031 -17.066406 3.25 -17.859375 C 4.164062 -18.648438 5.601562 -19.046875 7.5625 -19.046875 L 7.5625 -15.515625 C 7.007812 -15.515625 6.613281 -15.410156 6.375 -15.203125 C 6.144531 -14.992188 6.03125 -14.625 6.03125 -14.09375 L 6.03125 -13.578125 Z M 7.765625 -13.578125 "/></g></g></g><g fill="#0fc0ea" fill-opacity="1"><g transform="translate(95.42215, 285.205498)"><g><path d="M 7.59375 -3.53125 L 9.078125 -3.53125 L 9.078125 0 L 6.953125 0 C 5.429688 0 4.253906 -0.332031 3.421875 -1 C 2.585938 -1.675781 2.171875 -2.832031 2.171875 -4.46875 L 2.171875 -10.125 L 0.90625 -10.125 L 0.90625 -13.578125 L 2.171875 -13.578125 L 2.171875 -16.890625 L 6.328125 -16.890625 L 6.328125 -13.578125 L 9.046875 -13.578125 L 9.046875 -10.125 L 6.328125 -10.125 L 6.328125 -4.46875 C 6.328125 -3.84375 6.75 -3.53125 7.59375 -3.53125 Z M 7.59375 -3.53125 "/></g></g></g><g fill="#0fc0ea" fill-opacity="1"><g transform="translate(105.518344, 285.205498)"><g><path d="M 17.078125 -13.578125 L 21 -13.578125 L 16.9375 0 L 12.453125 0 L 10.5625 -8.03125 L 8.640625 0 L 4.15625 0 L 0.09375 -13.578125 L 4.25 -13.578125 L 6.375 -4.03125 L 8.46875 -13.578125 L 12.875 -13.578125 L 14.96875 -4.03125 Z M 17.078125 -13.578125 "/></g></g></g><g fill="#0fc0ea" fill-opacity="1"><g transform="translate(126.586538, 285.205498)"><g><path d="M 10.09375 -4.3125 C 10.695312 -4.894531 11 -5.71875 11 -6.78125 C 11 -7.851562 10.695312 -8.675781 10.09375 -9.25 C 9.5 -9.832031 8.8125 -10.125 8.03125 -10.125 C 7.25 -10.125 6.554688 -9.832031 5.953125 -9.25 C 5.359375 -8.664062 5.0625 -7.835938 5.0625 -6.765625 C 5.0625 -5.691406 5.359375 -4.867188 5.953125 -4.296875 C 6.554688 -3.722656 7.25 -3.4375 8.03125 -3.4375 C 8.8125 -3.4375 9.5 -3.726562 10.09375 -4.3125 Z M 2.625 -1.765625 C 1.425781 -3.066406 0.828125 -4.726562 0.828125 -6.75 C 0.828125 -8.78125 1.425781 -10.445312 2.625 -11.75 C 3.820312 -13.0625 5.285156 -13.71875 7.015625 -13.71875 C 8.742188 -13.71875 10.070312 -13.078125 11 -11.796875 L 11 -13.578125 L 15.15625 -13.578125 L 15.15625 0 L 11 0 L 11 -1.96875 C 9.988281 -0.539062 8.640625 0.171875 6.953125 0.171875 C 5.265625 0.171875 3.820312 -0.472656 2.625 -1.765625 Z M 2.625 -1.765625 "/></g></g></g><g fill="#0fc0ea" fill-opacity="1"><g transform="translate(143.567601, 285.205498)"><g><path d="M 5.984375 -13.578125 L 5.984375 -11.046875 C 6.953125 -12.828125 8.25 -13.71875 9.875 -13.71875 L 9.875 -9.484375 L 8.859375 -9.484375 C 7.898438 -9.484375 7.179688 -9.253906 6.703125 -8.796875 C 6.222656 -8.347656 5.984375 -7.554688 5.984375 -6.421875 L 5.984375 0 L 1.828125 0 L 1.828125 -13.578125 Z M 5.984375 -13.578125 "/></g></g></g><g fill="#0fc0ea" fill-opacity="1"><g transform="translate(153.882744, 285.205498)"><g><path d="M 7.59375 0.171875 C 5.613281 0.171875 3.988281 -0.460938 2.71875 -1.734375 C 1.457031 -3.015625 0.828125 -4.707031 0.828125 -6.8125 C 0.828125 -8.914062 1.453125 -10.59375 2.703125 -11.84375 C 3.960938 -13.09375 5.585938 -13.71875 7.578125 -13.71875 C 9.578125 -13.71875 11.234375 -13.097656 12.546875 -11.859375 C 13.867188 -10.628906 14.53125 -8.921875 14.53125 -6.734375 C 14.53125 -6.265625 14.492188 -5.828125 14.421875 -5.421875 L 5.078125 -5.421875 C 5.160156 -4.828125 5.425781 -4.335938 5.875 -3.953125 C 6.332031 -3.566406 6.828125 -3.375 7.359375 -3.375 C 7.890625 -3.375 8.28125 -3.425781 8.53125 -3.53125 C 8.789062 -3.644531 8.984375 -3.753906 9.109375 -3.859375 C 9.234375 -3.960938 9.390625 -4.132812 9.578125 -4.375 L 14.09375 -4.375 C 13.695312 -3.007812 12.914062 -1.910156 11.75 -1.078125 C 10.582031 -0.242188 9.195312 0.171875 7.59375 0.171875 Z M 10.1875 -8.03125 C 10.125 -8.664062 9.847656 -9.179688 9.359375 -9.578125 C 8.878906 -9.972656 8.304688 -10.171875 7.640625 -10.171875 C 6.972656 -10.171875 6.410156 -9.972656 5.953125 -9.578125 C 5.503906 -9.179688 5.222656 -8.664062 5.109375 -8.03125 Z M 10.1875 -8.03125 "/></g></g></g><g fill="#0fc0ea" fill-opacity="1"><g transform="translate(169.258143, 285.205498)"><g/></g></g><g fill="#0fc0ea" fill-opacity="1"><g transform="translate(176.556589, 285.205498)"><g><path d="M 5.984375 -3.15625 L 7.828125 -3.15625 C 9.421875 -3.15625 10.671875 -3.640625 11.578125 -4.609375 C 12.484375 -5.585938 12.9375 -6.894531 12.9375 -8.53125 C 12.9375 -10.175781 12.484375 -11.484375 11.578125 -12.453125 C 10.671875 -13.429688 9.421875 -13.921875 7.828125 -13.921875 L 5.984375 -13.921875 Z M 7.828125 -17.078125 C 10.554688 -17.078125 12.796875 -16.285156 14.546875 -14.703125 C 16.296875 -13.117188 17.171875 -11.066406 17.171875 -8.546875 C 17.171875 -6.023438 16.296875 -3.96875 14.546875 -2.375 C 12.796875 -0.789062 10.554688 0 7.828125 0 L 1.828125 0 L 1.828125 -17.078125 Z M 7.828125 -17.078125 "/></g></g></g><g fill="#0fc0ea" fill-opacity="1"><g transform="translate(194.535107, 285.205498)"><g><path d="M 7.59375 0.171875 C 5.613281 0.171875 3.988281 -0.460938 2.71875 -1.734375 C 1.457031 -3.015625 0.828125 -4.707031 0.828125 -6.8125 C 0.828125 -8.914062 1.453125 -10.59375 2.703125 -11.84375 C 3.960938 -13.09375 5.585938 -13.71875 7.578125 -13.71875 C 9.578125 -13.71875 11.234375 -13.097656 12.546875 -11.859375 C 13.867188 -10.628906 14.53125 -8.921875 14.53125 -6.734375 C 14.53125 -6.265625 14.492188 -5.828125 14.421875 -5.421875 L 5.078125 -5.421875 C 5.160156 -4.828125 5.425781 -4.335938 5.875 -3.953125 C 6.332031 -3.566406 6.828125 -3.375 7.359375 -3.375 C 7.890625 -3.375 8.28125 -3.425781 8.53125 -3.53125 C 8.789062 -3.644531 8.984375 -3.753906 9.109375 -3.859375 C 9.234375 -3.960938 9.390625 -4.132812 9.578125 -4.375 L 14.09375 -4.375 C 13.695312 -3.007812 12.914062 -1.910156 11.75 -1.078125 C 10.582031 -0.242188 9.195312 0.171875 7.59375 0.171875 Z M 10.1875 -8.03125 C 10.125 -8.664062 9.847656 -9.179688 9.359375 -9.578125 C 8.878906 -9.972656 8.304688 -10.171875 7.640625 -10.171875 C 6.972656 -10.171875 6.410156 -9.972656 5.953125 -9.578125 C 5.503906 -9.179688 5.222656 -8.664062 5.109375 -8.03125 Z M 10.1875 -8.03125 "/></g></g></g><g fill="#0fc0ea" fill-opacity="1"><g transform="translate(209.910507, 285.205498)"><g><path d="M 0.09375 -13.578125 L 4.53125 -13.578125 L 7.609375 -3.484375 L 10.703125 -13.578125 L 15.125 -13.578125 L 10.3125 0 L 4.921875 0 Z M 0.09375 -13.578125 "/></g></g></g><g fill="#0fc0ea" fill-opacity="1"><g transform="translate(225.139937, 285.205498)"><g><path d="M 7.59375 0.171875 C 5.613281 0.171875 3.988281 -0.460938 2.71875 -1.734375 C 1.457031 -3.015625 0.828125 -4.707031 0.828125 -6.8125 C 0.828125 -8.914062 1.453125 -10.59375 2.703125 -11.84375 C 3.960938 -13.09375 5.585938 -13.71875 7.578125 -13.71875 C 9.578125 -13.71875 11.234375 -13.097656 12.546875 -11.859375 C 13.867188 -10.628906 14.53125 -8.921875 14.53125 -6.734375 C 14.53125 -6.265625 14.492188 -5.828125 14.421875 -5.421875 L 5.078125 -5.421875 C 5.160156 -4.828125 5.425781 -4.335938 5.875 -3.953125 C 6.332031 -3.566406 6.828125 -3.375 7.359375 -3.375 C 7.890625 -3.375 8.28125 -3.425781 8.53125 -3.53125 C 8.789062 -3.644531 8.984375 -3.753906 9.109375 -3.859375 C 9.234375 -3.960938 9.390625 -4.132812 9.578125 -4.375 L 14.09375 -4.375 C 13.695312 -3.007812 12.914062 -1.910156 11.75 -1.078125 C 10.582031 -0.242188 9.195312 0.171875 7.59375 0.171875 Z M 10.1875 -8.03125 C 10.125 -8.664062 9.847656 -9.179688 9.359375 -9.578125 C 8.878906 -9.972656 8.304688 -10.171875 7.640625 -10.171875 C 6.972656 -10.171875 6.410156 -9.972656 5.953125 -9.578125 C 5.503906 -9.179688 5.222656 -8.664062 5.109375 -8.03125 Z M 10.1875 -8.03125 "/></g></g></g><g fill="#0fc0ea" fill-opacity="1"><g transform="translate(240.515336, 285.205498)"><g><path d="M 1.828125 0 L 1.828125 -18 L 5.984375 -18 L 5.984375 0 Z M 1.828125 0 "/></g></g></g><g fill="#0fc0ea" fill-opacity="1"><g transform="translate(248.324692, 285.205498)"><g><path d="M 9.96875 -4.25 C 10.519531 -4.84375 10.796875 -5.6875 10.796875 -6.78125 C 10.796875 -7.882812 10.507812 -8.722656 9.9375 -9.296875 C 9.375 -9.878906 8.703125 -10.171875 7.921875 -10.171875 C 7.148438 -10.171875 6.484375 -9.878906 5.921875 -9.296875 C 5.359375 -8.722656 5.078125 -7.882812 5.078125 -6.78125 C 5.078125 -5.6875 5.363281 -4.84375 5.9375 -4.25 C 6.519531 -3.664062 7.195312 -3.375 7.96875 -3.375 C 8.75 -3.375 9.414062 -3.664062 9.96875 -4.25 Z M 2.90625 -1.75 C 1.53125 -3.03125 0.84375 -4.71875 0.84375 -6.8125 C 0.84375 -8.90625 1.523438 -10.578125 2.890625 -11.828125 C 4.253906 -13.085938 5.941406 -13.71875 7.953125 -13.71875 C 9.960938 -13.71875 11.644531 -13.085938 13 -11.828125 C 14.351562 -10.578125 15.03125 -8.90625 15.03125 -6.8125 C 15.03125 -4.71875 14.359375 -3.03125 13.015625 -1.75 C 11.671875 -0.46875 9.992188 0.171875 7.984375 0.171875 C 5.972656 0.171875 4.28125 -0.46875 2.90625 -1.75 Z M 2.90625 -1.75 "/></g></g></g><g fill="#0fc0ea" fill-opacity="1"><g transform="translate(264.21099, 285.205498)"><g><path d="M 11.015625 -4.296875 C 11.617188 -4.867188 11.921875 -5.691406 11.921875 -6.765625 C 11.921875 -7.835938 11.617188 -8.664062 11.015625 -9.25 C 10.421875 -9.832031 9.734375 -10.125 8.953125 -10.125 C 8.171875 -10.125 7.476562 -9.832031 6.875 -9.25 C 6.28125 -8.675781 5.984375 -7.851562 5.984375 -6.78125 C 5.984375 -5.71875 6.28125 -4.894531 6.875 -4.3125 C 7.476562 -3.726562 8.171875 -3.4375 8.953125 -3.4375 C 9.734375 -3.4375 10.421875 -3.722656 11.015625 -4.296875 Z M 5.984375 -11.796875 C 6.910156 -13.078125 8.234375 -13.71875 9.953125 -13.71875 C 11.679688 -13.71875 13.144531 -13.0625 14.34375 -11.75 C 15.550781 -10.445312 16.15625 -8.78125 16.15625 -6.75 C 16.15625 -4.726562 15.550781 -3.066406 14.34375 -1.765625 C 13.144531 -0.472656 11.691406 0.171875 9.984375 0.171875 C 8.285156 0.171875 6.953125 -0.539062 5.984375 -1.96875 L 5.984375 6.46875 L 1.828125 6.46875 L 1.828125 -13.578125 L 5.984375 -13.578125 Z M 5.984375 -11.796875 "/></g></g></g><g fill="#0fc0ea" fill-opacity="1"><g transform="translate(281.192053, 285.205498)"><g><path d="M 7.59375 0.171875 C 5.613281 0.171875 3.988281 -0.460938 2.71875 -1.734375 C 1.457031 -3.015625 0.828125 -4.707031 0.828125 -6.8125 C 0.828125 -8.914062 1.453125 -10.59375 2.703125 -11.84375 C 3.960938 -13.09375 5.585938 -13.71875 7.578125 -13.71875 C 9.578125 -13.71875 11.234375 -13.097656 12.546875 -11.859375 C 13.867188 -10.628906 14.53125 -8.921875 14.53125 -6.734375 C 14.53125 -6.265625 14.492188 -5.828125 14.421875 -5.421875 L 5.078125 -5.421875 C 5.160156 -4.828125 5.425781 -4.335938 5.875 -3.953125 C 6.332031 -3.566406 6.828125 -3.375 7.359375 -3.375 C 7.890625 -3.375 8.28125 -3.425781 8.53125 -3.53125 C 8.789062 -3.644531 8.984375 -3.753906 9.109375 -3.859375 C 9.234375 -3.960938 9.390625 -4.132812 9.578125 -4.375 L 14.09375 -4.375 C 13.695312 -3.007812 12.914062 -1.910156 11.75 -1.078125 C 10.582031 -0.242188 9.195312 0.171875 7.59375 0.171875 Z M 10.1875 -8.03125 C 10.125 -8.664062 9.847656 -9.179688 9.359375 -9.578125 C 8.878906 -9.972656 8.304688 -10.171875 7.640625 -10.171875 C 6.972656 -10.171875 6.410156 -9.972656 5.953125 -9.578125 C 5.503906 -9.179688 5.222656 -8.664062 5.109375 -8.03125 Z M 10.1875 -8.03125 "/></g></g></g><g fill="#0fc0ea" fill-opacity="1"><g transform="translate(296.567441, 285.205498)"><g><path d="M 5.984375 -13.578125 L 5.984375 -11.046875 C 6.953125 -12.828125 8.25 -13.71875 9.875 -13.71875 L 9.875 -9.484375 L 8.859375 -9.484375 C 7.898438 -9.484375 7.179688 -9.253906 6.703125 -8.796875 C 6.222656 -8.347656 5.984375 -7.554688 5.984375 -6.421875 L 5.984375 0 L 1.828125 0 L 1.828125 -13.578125 Z M 5.984375 -13.578125 "/></g></g></g></svg>